<?xml version="1.0" standalone="no"?>
<!DOCTYPE svg PUBLIC "-//W3C//DTD SVG 20010904//EN"
 "http://www.w3.org/TR/2001/REC-SVG-20010904/DTD/svg10.dtd">
<svg version="1.0" xmlns="http://www.w3.org/2000/svg"
 width="454.000000pt" height="454.000000pt" viewBox="0 0 454.000000 454.000000"
 preserveAspectRatio="xMidYMid meet">
<metadata>
Created by potrace 1.14, written by Peter Selinger 2001-2017
</metadata>
<g transform="translate(0.000000,454.000000) scale(0.100000,-0.100000)"
fill="#000000" stroke="none">
<path d="M1990 4509 c-157 -25 -191 -32 -265 -51 -170 -44 -298 -91 -440 -159
-118 -57 -334 -189 -381 -233 -7 -6 -31 -27 -55 -46 -24 -19 -62 -52 -84 -72
l-40 -37 110 -111 c60 -60 114 -110 120 -110 5 0 28 17 51 38 57 52 113 95
135 106 11 5 19 13 19 18 0 4 7 8 15 8 8 0 15 4 15 8 0 5 12 15 28 23 15 8 29
16 32 19 18 18 220 120 305 154 181 73 359 114 570 132 39 4 72 9 75 11 3 3 6
74 7 159 l2 154 -82 -1 c-45 -1 -107 -5 -137 -10z"/>
<path d="M2339 4503 c-1 -22 -1 -250 0 -280 1 -20 6 -23 39 -23 163 0 466 -72
662 -158 197 -86 434 -239 519 -334 8 -10 21 -18 27 -18 14 0 224 206 224 220
0 8 -15 23 -94 95 -6 6 -45 35 -86 65 -41 30 -76 58 -78 62 -2 5 -10 8 -18 8
-8 0 -14 5 -14 10 0 6 -7 10 -15 10 -8 0 -15 4 -15 9 0 5 -8 11 -17 14 -19 6
-75 38 -83 48 -12 14 -283 139 -345 159 -22 7 -49 17 -60 21 -18 8 -48 16
-175 50 -112 30 -313 59 -407 59 -53 0 -63 -3 -64 -17z"/>
<path d="M2050 4013 c-877 -111 -1533 -863 -1526 -1748 l1 -120 700 -2 c385
-1 708 -2 718 -2 16 -1 17 -40 17 -677 l0 -676 -36 7 c-67 12 -228 71 -321
118 -277 138 -493 344 -657 629 l-28 48 -99 -52 c-55 -28 -102 -54 -104 -58
-8 -14 119 -213 196 -310 297 -369 749 -611 1207 -647 l82 -6 0 932 0 931
-718 0 -719 0 4 53 c3 28 16 104 30 167 116 531 501 951 1026 1119 153 49 137
79 137 -263 l0 -293 120 -1 120 0 0 433 0 433 -22 -1 c-13 0 -70 -6 -128 -14z"/>
<path d="M2360 2275 l0 -1755 40 0 c125 0 389 61 545 125 518 215 895 649
1035 1190 16 61 31 133 34 160 4 28 9 70 13 95 10 72 6 328 -7 420 -66 481
-337 924 -737 1203 -238 167 -514 272 -793 302 -30 3 -72 8 -92 11 l-38 5 0
-1756z m374 1445 c396 -127 719 -404 907 -779 75 -151 120 -302 149 -501 11
-79 6 -325 -9 -400 -6 -30 -13 -68 -15 -85 -3 -16 -16 -66 -30 -110 -101 -337
-311 -626 -605 -830 -130 -90 -404 -209 -501 -217 l-34 -3 -1 1478 0 1477 22
0 c13 0 65 -14 117 -30z"/>
<path d="M576 3758 c-25 -29 -57 -66 -71 -83 -52 -59 -194 -282 -245 -385 -93
-185 -153 -357 -195 -560 -22 -104 -45 -291 -45 -362 l0 -28 160 0 159 0 5 33
c3 17 7 67 10 111 7 92 47 281 82 381 14 39 26 77 29 87 2 9 11 30 19 47 9 16
16 37 16 46 0 8 5 15 10 15 6 0 10 8 10 17 0 27 133 255 194 335 12 14 32 41
46 59 14 19 40 50 58 70 17 20 32 42 32 48 0 16 -201 221 -217 221 -6 0 -32
-24 -57 -52z"/>
<path d="M3796 3701 c-118 -118 -116 -112 -61 -173 97 -106 202 -267 276 -423
51 -107 104 -246 115 -299 2 -10 10 -42 18 -70 26 -90 50 -248 54 -358 l2 -38
160 0 c187 0 168 -18 155 145 -25 338 -162 725 -363 1030 -36 55 -68 102 -71
105 -3 3 -32 37 -63 75 -68 85 -96 115 -106 115 -4 0 -56 -49 -116 -109z"/>
<path d="M47 2202 l-29 -4 7 -96 c3 -53 8 -110 11 -127 62 -404 204 -753 429
-1051 71 -94 158 -194 170 -194 2 0 54 50 115 111 123 124 118 106 57 174
-195 215 -362 556 -426 870 -19 93 -24 131 -35 259 -3 26 -7 50 -9 52 -5 6
-252 10 -290 6z"/>
<path d="M4223 2202 c-17 -3 -23 -10 -24 -30 0 -15 -2 -38 -3 -52 -2 -14 -7
-58 -10 -98 -9 -90 -54 -277 -96 -397 -50 -139 -119 -280 -202 -405 -73 -111
-96 -142 -165 -219 -18 -20 -33 -41 -33 -47 0 -5 50 -59 111 -119 l111 -110
41 46 c48 52 85 97 107 129 8 13 20 28 25 34 6 6 26 34 45 61 231 334 385 787
385 1129 l0 79 -135 1 c-74 0 -145 0 -157 -2z"/>
<path d="M835 740 l-110 -111 35 -30 c19 -17 52 -45 74 -63 21 -17 43 -36 50
-41 29 -27 157 -115 166 -115 5 0 10 -4 10 -10 0 -5 7 -10 15 -10 8 0 15 -3
15 -8 0 -4 15 -13 33 -21 17 -8 34 -17 37 -21 20 -26 422 -199 463 -199 1 0 9
-2 17 -5 114 -36 410 -86 516 -86 l50 0 3 155 c2 173 7 161 -74 169 -371 38
-662 139 -944 328 -42 28 -78 54 -81 57 -3 3 -21 18 -40 32 -19 15 -51 41 -70
58 -19 17 -40 31 -45 31 -6 0 -60 -50 -120 -110z"/>
<path d="M3535 814 c-22 -20 -67 -56 -100 -80 -33 -25 -68 -52 -78 -60 -9 -8
-22 -14 -27 -14 -6 0 -10 -4 -10 -9 0 -5 -8 -11 -17 -14 -18 -6 -74 -37 -83
-47 -6 -6 -171 -87 -210 -103 -14 -5 -34 -13 -45 -18 -32 -13 -206 -66 -255
-77 -83 -19 -209 -39 -310 -49 -30 -2 -57 -6 -58 -8 -3 -3 -6 -255 -3 -299 1
-17 8 -18 89 -12 219 15 423 58 632 135 88 32 390 179 390 190 0 3 12 12 28
18 59 27 332 245 332 265 0 16 -207 218 -222 218 -7 -1 -31 -17 -53 -36z"/>
</g>
</svg>
